<?xml version="1.0" standalone="no"?><!DOCTYPE svg PUBLIC "-//W3C//DTD SVG 1.1//EN" "http://www.w3.org/Graphics/SVG/1.1/DTD/svg11.dtd"><svg t="1701680625729" class="icon" viewBox="0 0 1024 1024" version="1.1" xmlns="http://www.w3.org/2000/svg" p-id="7809" xmlns:xlink="http://www.w3.org/1999/xlink" width="200" height="200"><path d="M937.835947 429.84765C937.835947 194.178282 746.976952 0 511.307584 0S84.779221 194.178282 84.779221 429.84765c0 277.160454 107.876823 345.205835 260.564019 363.461912-18.256078 19.915721-33.192869 43.150729-39.831442 69.705025-8.298217 31.533225-18.256078 107.876823 18.256078 114.515397 56.427877 9.957861 71.364668-41.491086 73.024311-56.427877-6.638574 53.10859 28.213938 102.897893 49.789303 102.897893 111.19611 0 36.512156-73.024311 74.683954-73.024311s-26.554295 64.726094 54.768234 71.364668c14.936791 1.659643 26.554295 0 39.831442-11.617504 21.575365-18.256078 29.873582-74.683955 16.596435-106.21718 3.319287 6.638574 28.213938 69.705024 49.789303 71.364667 51.448947 8.298217 84.641815-58.08752 51.448946-111.19611-16.596434-24.894652-33.192869-48.12966-51.448946-69.705024 149.367909-19.915721 255.585089-91.280389 255.585089-365.121556zM466.497211 607.429498c6.638574-29.873582 28.213938-61.406807 54.768233-61.406808 24.894652 0 48.12966 33.192869 54.768234 63.066451 1.659643 8.298217-6.638574 14.936791-13.277148 11.617504l-33.192868-13.277147c-4.97893-1.659643-9.957861-1.659643-14.936791 0l-33.192869 13.277147c-8.298217 3.319287-16.596434-4.97893-14.936791-13.277147zM235.806773 426.528363c0-53.10859 43.150729-96.259319 96.25932-96.259319s96.259319 43.150729 96.259319 96.259319-43.150729 96.259319-96.259319 96.259319-96.259319-43.150729-96.25932-96.259319z m454.742302 96.259319c-53.10859 0-96.259319-43.150729-96.259319-96.259319s43.150729-96.259319 96.259319-96.259319c53.10859 0 96.259319 43.150729 96.259319 96.259319s-43.150729 96.259319-96.259319 96.259319z" fill="#2BD2FA" p-id="7810"></path></svg>